<svg width="4065" height="3933" viewBox="0 0 4065 3933" fill="none" xmlns="http://www.w3.org/2000/svg">
<rect x="0.5" y="0.5" width="4054.87" height="3931.21" rx="599.5" fill="#4E65FC" stroke="#496A81"/>
<path d="M3784.38 1467.54L2145.1 12.6445H3464.45C3795.54 12.6445 4063.95 281.05 4063.95 612.145V3332.21C4063.95 3663.3 3795.54 3931.71 3464.45 3931.71H2145.03L2332.39 3752.81L3800.47 2350.97C4054.46 2108.44 4047.03 1700.66 3784.38 1467.54Z" fill="#2110E1" stroke="#496A81"/>
<path d="M495.225 1388.81C490.515 1303.16 558.581 1231.27 644.277 1231.37L3448.48 1234.69C3531.01 1234.78 3597.99 1301.82 3598.08 1384.42L3599.9 3099.02C3599.99 3181.27 3533.7 3248 3451.53 3248.4L740.695 3261.6C660.946 3261.99 594.804 3199.64 590.421 3119.93L495.225 1388.81Z" fill="#CDE5FD" stroke="#496A81"/>
<path d="M3442.51 1333.38C3508.6 1290.69 3595.86 1338.23 3596.04 1417.03L3600.06 3133.96C3600.19 3188.9 3555.81 3233.46 3500.9 3233.5L835.941 3235.69C736.699 3235.77 698.27 3106.3 781.564 3052.48L3442.51 1333.38Z" fill="#C8E1FA" stroke="#496A81"/>
<g opacity="0.96">
<rect x="0.911751" y="-1.0867" width="1180.9" height="665.761" transform="matrix(-0.0841687 -0.996451 0.995919 -0.0902471 1142.48 1713.35)" fill="#16A12D" stroke="#496A81" stroke-width="2"/>
<path d="M1536.66 706.1L1631.48 697.507L1704.2 1558.44L1219.06 1602.4L1146.34 741.469L1247.51 732.301L1248.01 732.256L1247.97 731.758L1239.04 626.033L1527.18 599.922L1536.12 705.647L1536.16 706.145L1536.66 706.1Z" fill="#2ADA17" stroke="#496A81"/>
<path d="M1383.27 652.723C1427.76 648.691 1466.7 679.874 1470.29 722.319C1473.87 764.765 1440.75 802.477 1396.26 806.509C1351.76 810.541 1312.82 779.359 1309.24 736.913C1305.65 694.468 1338.77 656.755 1383.27 652.723Z" fill="#16A12D" stroke="#496A81"/>
</g>
<rect x="1.21257" y="-0.703092" width="1176.29" height="668.557" transform="matrix(0.250932 -0.969975 0.961638 0.266883 1453.39 1534.17)" fill="#16A12D" stroke="#496A81" stroke-width="2"/>
<path d="M2156.86 727.089L2248.81 752.606L2032.85 1587.39L1562.44 1456.84L1778.4 622.054L1876.5 649.281L1876.98 649.415L1877.11 648.93L1903.63 546.417L2183.03 623.957L2156.51 726.47L2156.38 726.955L2156.86 727.089Z" fill="#2ADA17" stroke="#496A81"/>
<path d="M2030.35 622.594C2073.49 634.569 2099.79 677.668 2089.14 718.82C2078.49 759.972 2034.92 783.682 1991.77 771.707C1948.62 759.732 1922.33 716.632 1932.98 675.481C1943.62 634.329 1987.2 610.619 2030.35 622.594Z" fill="#16A12D" stroke="#496A81"/>
<rect x="1.3688" y="-0.245599" width="1164.44" height="675.576" transform="matrix(0.561731 -0.83092 0.807067 0.585321 1723.33 1492.45)" fill="#16A12D" stroke="#496A81" stroke-width="2"/>
<path d="M1851.8 1458.56L2330.37 750.644L2393.4 796.354C2404.77 804.597 2420.39 801.793 2428.3 790.091L2473.03 723.934L2709.98 895.78L2665.25 961.937C2657.34 973.639 2660.14 989.808 2671.51 998.051L2729.31 1039.97L2250.74 1747.88L1851.8 1458.56Z" fill="#2ADA17" stroke="#496A81"/>
<path d="M2547.43 849.665C2584.03 876.21 2594.49 926.025 2570.91 960.913C2547.32 995.8 2498.55 1002.65 2461.95 976.108C2425.35 949.563 2414.88 899.748 2438.47 864.861C2462.05 829.973 2510.83 823.12 2547.43 849.665Z" fill="#16A12D" stroke="#496A81"/>
<path d="M485.724 1394.78C485.386 1309.24 556.473 1241.99 641.692 1247.23L3140.95 1400.77C3223.32 1405.83 3287.09 1476.84 3283.4 1559.36L3206.83 3271.68C3203.15 3353.82 3134.01 3416.49 3052.01 3412L636.18 3279.82C556.23 3275.44 492.896 3208.69 492.579 3128.46L485.724 1394.78Z" fill="#F9FCFF" stroke="#496A81"/>
<path d="M3176.22 1452.31C3230.2 1417.47 3301.87 1459.18 3299.29 1523.94L3226.47 3355.48C3224.73 3399.24 3188.01 3432.78 3144.32 3430.5L1759.37 3358.16L1759.36 3358.16L617.735 3275.88C541.377 3270.37 514.566 3170.52 578.385 3129.32L3176.22 1452.31Z" fill="#E0EEFC" stroke="#496A81"/>
<path d="M2161.97 2390.48C2164.97 2252.63 2278.51 2151.26 2415.55 2164.06L3351.4 2251.48C3373.1 2253.51 3390.3 2272.85 3389.82 2294.67L3381.47 2677.86C3380.99 2699.69 3363.02 2715.73 3341.32 2713.71L2355.75 2621.64C2246.17 2611.4 2159.28 2513.75 2161.68 2403.52L2161.97 2390.48Z" fill="#3751B2" stroke="#496A81"/>
<path d="M3379.17 2278.55C3385.38 2276.62 3391.62 2281.35 3391.43 2287.85L3379.6 2692.37C3379.44 2697.81 3374.76 2702.04 3369.33 2701.63L2331.93 2622.88C2321.5 2622.09 2319.93 2607.44 2329.95 2604.33L3379.17 2278.55Z" fill="#2C44BE" stroke="#496A81"/>
<path d="M2436.26 2360.86C2439.03 2393.6 2415.22 2422.49 2383.1 2425.4C2350.98 2428.31 2322.68 2404.14 2319.92 2371.4C2317.15 2338.65 2340.96 2309.76 2373.08 2306.85C2405.2 2303.94 2433.5 2328.11 2436.26 2360.86Z" fill="#B5E8FD" stroke="#496A81"/>
</svg>
